<?xml version="1.0" encoding="utf-8"?>
<!-- Generator: Adobe Illustrator 15.1.0, SVG Export Plug-In . SVG Version: 6.00 Build 0)  -->
<!DOCTYPE svg PUBLIC "-//W3C//DTD SVG 1.1//EN" "http://www.w3.org/Graphics/SVG/1.1/DTD/svg11.dtd">
<svg version="1.1" id="Calque_1" xmlns="http://www.w3.org/2000/svg" xmlns:xlink="http://www.w3.org/1999/xlink" x="0px" y="0px"
	 width="340.366px" height="211.197px" viewBox="0 0 340.366 211.197" enable-background="new 0 0 340.366 211.197"
	 xml:space="preserve">
<g>
	<g>
		<path fill="#069851" d="M74.709-112.48l-18.177-13.961c-13.309,22.334-34.514,57.549-34.514,57.549s-1.651,5.843,3.176,5.967
			c2.192,0.058,10.819,0.064,19.576,0.053l0.005-0.083L74.709-112.48z"/>
		<path fill="#D54034" d="M121.06-157.775c-3.173-5.078-43.934-72.759-43.934-72.759s-4.7-6.094-11.812-6.601l-20.264-0.064
			l-0.179,0.064l66.538,109.96c0,0,0.048,0.013,0.133,0.033c6.171-10.367,10.658-17.936,10.658-17.936
			S124.235-152.695,121.06-157.775z"/>
		<path fill="#079250" d="M83.916-127.713l0.015,0.006c-7.521-12.464-16.454-27.083-16.454-27.083l-0.021,0.006
			c0.459,2.092,1.287,7.146-0.486,10.595c-0.675,1.312-4.864,8.402-10.438,17.749l18.177,13.961L83.916-127.713z"/>
		<path fill="#498CF3" d="M111.41-127.175l-66.538-109.96l0.179-0.064l-20.111-0.063c0,0-5.717,1.522-2.921,6.476l45.203,75.043
			c0,0,0.102,0.357,0.234,0.959l0.021-0.006c0,0,8.933,14.62,16.454,27.083c4.422,7.333,8.359,13.919,9.703,16.343
			c3.62,6.537,1.203,12.221,1.203,12.221l-0.608,1.029c3.878-6.479,7.96-13.318,11.768-19.71c1.943-3.257,3.813-6.397,5.547-9.318
			C111.458-127.162,111.41-127.175,111.41-127.175z"/>
		<path fill="#F8C53C" d="M76.618-69.146c1.55-2.25,8.949-14.506,17.353-28.539L74.709-112.48L44.775-62.954l-0.005,0.083
			c10.498-0.013,21.182-0.053,21.182-0.053S72.681-63.43,76.618-69.146z"/>
		<path fill="none" d="M93.974-97.685l0.255-0.429c-0.085,0.143-0.17,0.286-0.258,0.429H93.974z"/>
		<path fill="#DCAF37" d="M74.709-112.48l19.262,14.795c0.088-0.144,0.173-0.286,0.258-0.429l0.608-1.029
			c0,0,2.417-5.684-1.203-12.221c-1.344-2.424-5.281-9.01-9.703-16.343l-0.015-0.006L74.709-112.48z"/>
	</g>
	<g>
		<path d="M173.415-157.535h23.724v29.627c-6.442,2.206-13.522,3.309-21.243,3.309c-8.472,0-15.02-2.456-19.645-7.369
			c-4.624-4.913-6.937-11.918-6.937-21.017c0-8.873,2.531-15.778,7.595-20.716c5.063-4.938,12.156-7.407,21.28-7.407
			c3.459,0,6.724,0.326,9.794,0.978c3.07,0.652,5.746,1.479,8.027,2.481l-4.699,11.655c-3.961-1.955-8.31-2.933-13.047-2.933
			c-4.337,0-7.688,1.41-10.058,4.23c-2.368,2.819-3.553,6.849-3.553,12.087c0,5.139,1.071,9.055,3.215,11.75
			c2.143,2.694,5.231,4.042,9.268,4.042c2.205,0,4.235-0.213,6.091-0.639v-8.61h-9.813V-157.535z"/>
		<path d="M253.077-154.001c0,9.174-2.526,16.242-7.576,21.205c-5.051,4.963-12.15,7.444-21.299,7.444h-17.784v-54.968h19.024
			c8.822,0,15.634,2.256,20.435,6.768C250.677-169.04,253.077-162.523,253.077-154.001z M237.661-153.475
			c0-5.038-0.996-8.772-2.988-11.204c-1.993-2.431-5.02-3.647-9.08-3.647h-4.324v30.792h3.309c4.512,0,7.82-1.31,9.926-3.929
			S237.661-148.085,237.661-153.475z"/>
		<path d="M281.146-157.535h23.725v29.627c-6.442,2.206-13.522,3.309-21.242,3.309c-8.473,0-15.021-2.456-19.646-7.369
			c-4.624-4.913-6.937-11.918-6.937-21.017c0-8.873,2.531-15.778,7.595-20.716c5.063-4.938,12.156-7.407,21.28-7.407
			c3.459,0,6.724,0.326,9.794,0.978c3.07,0.652,5.746,1.479,8.027,2.481l-4.7,11.655c-3.96-1.955-8.309-2.933-13.046-2.933
			c-4.337,0-7.688,1.41-10.058,4.23c-2.368,2.819-3.553,6.849-3.553,12.087c0,5.139,1.071,9.055,3.215,11.75
			c2.143,2.694,5.231,4.042,9.268,4.042c2.205,0,4.235-0.213,6.091-0.639v-8.61h-9.813V-157.535z"/>
		<path d="M361.851-131.352h-9.886v-14.842h-11.431v14.842h-9.886v-36.407h9.886v13.497h11.431v-13.497h9.886V-131.352z"/>
		<path d="M368.948-166.588c0-1.46,0.407-2.548,1.221-3.262c0.813-0.713,2.125-1.071,3.935-1.071s3.129,0.365,3.96,1.096
			c0.829,0.731,1.244,1.81,1.244,3.237c0,2.855-1.734,4.283-5.204,4.283C370.667-162.305,368.948-163.733,368.948-166.588z
			 M378.935-131.352h-9.736v-28.214h9.736V-131.352z"/>
		<path d="M417.827-156.179c0,4.068-1.2,7.209-3.599,9.425c-2.399,2.217-5.807,3.325-10.223,3.325h-2.765v12.078h-9.836v-36.407
			h12.601c4.599,0,8.052,1.005,10.359,3.013C416.673-162.737,417.827-159.881,417.827-156.179z M401.241-151.448h1.793
			c1.478,0,2.652-0.415,3.524-1.245c0.871-0.83,1.308-1.976,1.308-3.437c0-2.457-1.362-3.686-4.084-3.686h-2.541V-151.448z"/>
		<path d="M422.856-166.588c0-1.46,0.407-2.548,1.221-3.262c0.813-0.713,2.125-1.071,3.935-1.071s3.129,0.365,3.96,1.096
			c0.829,0.731,1.244,1.81,1.244,3.237c0,2.855-1.734,4.283-5.204,4.283C424.575-162.305,422.856-163.733,422.856-166.588z
			 M432.843-131.352h-9.736v-28.214h9.736V-131.352z"/>
		<path d="M452.491-130.854c-4.616,0-8.115-1.245-10.497-3.735s-3.573-6.067-3.573-10.733c0-4.682,1.286-8.309,3.859-10.882
			c2.573-2.573,6.234-3.86,10.982-3.86c3.271,0,6.35,0.714,9.238,2.142l-2.863,7.197c-1.179-0.514-2.266-0.925-3.262-1.232
			s-2.034-0.461-3.113-0.461c-1.577,0-2.798,0.614-3.66,1.843c-0.864,1.229-1.295,2.963-1.295,5.205
			c0,4.516,1.668,6.773,5.005,6.773c2.855,0,5.595-0.83,8.218-2.49v7.745C459.023-131.684,456.01-130.854,452.491-130.854z"/>
	</g>
</g>
<g>
	<g>
		<path fill="#069851" d="M83.688,143.184l-18.177-13.961c-13.309,22.334-34.514,57.549-34.514,57.549s-1.651,5.843,3.176,5.967
			c2.192,0.059,10.819,0.064,19.576,0.053l0.005-0.082L83.688,143.184z"/>
		<path fill="#D54034" d="M130.038,97.889c-3.173-5.078-43.934-72.76-43.934-72.76s-4.7-6.094-11.812-6.601l-20.264-0.064
			l-0.179,0.064l66.538,109.96c0,0,0.048,0.013,0.133,0.033c6.171-10.367,10.658-17.936,10.658-17.936
			S133.214,102.968,130.038,97.889z"/>
		<path fill="#079250" d="M92.895,127.95l0.015,0.006c-7.521-12.464-16.454-27.083-16.454-27.083l-0.021,0.006
			c0.459,2.092,1.287,7.146-0.486,10.595c-0.675,1.312-4.864,8.402-10.438,17.749l18.177,13.961L92.895,127.95z"/>
		<path fill="#498CF3" d="M120.389,128.488L53.851,18.528l0.179-0.064L33.918,18.4c0,0-5.717,1.522-2.921,6.477L76.2,99.92
			c0,0,0.102,0.356,0.234,0.959l0.021-0.006c0,0,8.933,14.619,16.454,27.083c4.422,7.333,8.359,13.919,9.703,16.343
			c3.62,6.537,1.203,12.222,1.203,12.222l-0.608,1.028c3.878-6.479,7.96-13.317,11.768-19.71c1.943-3.257,3.813-6.397,5.547-9.317
			C120.437,128.501,120.389,128.488,120.389,128.488z"/>
		<path fill="#F8C53C" d="M85.597,186.518c1.55-2.25,8.949-14.506,17.353-28.539l-19.262-14.795l-29.934,49.525l-0.005,0.082
			c10.498-0.013,21.182-0.053,21.182-0.053S81.659,192.233,85.597,186.518z"/>
		<path fill="none" d="M102.952,157.979l0.255-0.43c-0.085,0.144-0.17,0.286-0.258,0.43H102.952z"/>
		<path fill="#DCAF37" d="M83.688,143.184l19.262,14.795c0.088-0.144,0.173-0.286,0.258-0.43l0.608-1.028
			c0,0,2.417-5.685-1.203-12.222c-1.344-2.424-5.281-9.01-9.703-16.343l-0.015-0.006L83.688,143.184z"/>
	</g>
	<g>
		<g>
			<path d="M183.994,75.083h22.607v28.234c-6.139,2.104-12.886,3.154-20.244,3.154c-8.074,0-14.313-2.342-18.721-7.023
				c-4.407-4.682-6.611-11.359-6.611-20.029c0-8.455,2.412-15.037,7.238-19.742c4.825-4.705,11.585-7.059,20.279-7.059
				c3.297,0,6.408,0.311,9.334,0.932c2.927,0.621,5.477,1.41,7.65,2.365l-4.479,11.107c-3.774-1.863-7.92-2.795-12.434-2.795
				c-4.134,0-7.328,1.344-9.585,4.031c-2.257,2.686-3.386,6.525-3.386,11.518c0,4.898,1.021,8.631,3.063,11.199
				c2.042,2.566,4.986,3.85,8.832,3.85c2.102,0,4.037-0.203,5.806-0.607v-8.207h-9.352V75.083z"/>
			<path d="M259.911,78.452c0,8.742-2.408,15.479-7.22,20.207c-4.813,4.73-11.579,7.096-20.298,7.096h-16.949V53.37h18.131
				c8.408,0,14.898,2.15,19.474,6.449C257.624,64.12,259.911,70.329,259.911,78.452z M245.22,78.954
				c0-4.803-0.949-8.361-2.848-10.678c-1.9-2.318-4.783-3.477-8.653-3.477h-4.121v29.346h3.153c4.3,0,7.453-1.248,9.459-3.744
				C244.217,87.905,245.22,84.089,245.22,78.954z"/>
			<path d="M286.662,75.083h22.607v28.234c-6.139,2.104-12.886,3.154-20.244,3.154c-8.074,0-14.313-2.342-18.721-7.023
				c-4.407-4.682-6.611-11.359-6.611-20.029c0-8.455,2.412-15.037,7.238-19.742c4.825-4.705,11.585-7.059,20.279-7.059
				c3.297,0,6.408,0.311,9.335,0.932c2.926,0.621,5.476,1.41,7.649,2.365l-4.479,11.107c-3.774-1.863-7.92-2.795-12.434-2.795
				c-4.134,0-7.327,1.344-9.585,4.031c-2.256,2.686-3.386,6.525-3.386,11.518c0,4.898,1.021,8.631,3.063,11.199
				c2.042,2.566,4.986,3.85,8.832,3.85c2.102,0,4.037-0.203,5.806-0.607v-8.207h-9.352V75.083z"/>
		</g>
		<g>
			<path d="M199.042,158.013h-8.77v-17.906h-16.432v17.906h-8.799v-41.49h8.799v16.26h16.432v-16.26h8.77V158.013z"/>
			<path d="M208.461,118.083c0-2.818,1.571-4.229,4.711-4.229c3.142,0,4.711,1.41,4.711,4.229c0,1.344-0.393,2.389-1.178,3.135
				c-0.784,0.748-1.962,1.121-3.533,1.121C210.032,122.339,208.461,120.921,208.461,118.083z M217.486,158.013h-8.657v-31.729h8.657
				V158.013z"/>
			<path d="M261.724,129.464c0,4.463-1.395,7.881-4.186,10.242c-2.791,2.367-6.76,3.549-11.905,3.549h-3.775v14.758h-8.796v-41.49
				h13.253c5.032,0,8.857,1.084,11.479,3.248C260.413,121.938,261.724,125.169,261.724,129.464z M241.857,136.046h2.896
				c2.703,0,4.729-0.533,6.071-1.604c1.344-1.068,2.015-2.623,2.015-4.666c0-2.063-0.562-3.588-1.688-4.57
				c-1.125-0.984-2.891-1.477-5.292-1.477h-4.003V136.046z"/>
			<path d="M268.505,118.083c0-2.818,1.572-4.229,4.712-4.229c3.141,0,4.71,1.41,4.71,4.229c0,1.344-0.393,2.389-1.177,3.135
				c-0.785,0.748-1.963,1.121-3.533,1.121C270.077,122.339,268.505,120.921,268.505,118.083z M277.53,158.013h-8.656v-31.729h8.656
				V158.013z"/>
			<path d="M299.497,158.579c-9.876,0-14.815-5.42-14.815-16.262c0-5.391,1.345-9.51,4.03-12.357
				c2.688-2.848,6.536-4.271,11.551-4.271c3.671,0,6.962,0.719,9.876,2.156l-2.556,6.699c-1.362-0.549-2.629-1-3.802-1.35
				s-2.346-0.525-3.519-0.525c-4.503,0-6.755,3.199-6.755,9.592c0,6.207,2.252,9.309,6.755,9.309c1.664,0,3.207-0.223,4.625-0.666
				c1.421-0.445,2.838-1.141,4.257-2.086v7.406c-1.399,0.891-2.814,1.504-4.242,1.846
				C303.474,158.409,301.672,158.579,299.497,158.579z"/>
		</g>
	</g>
</g>
</svg>
